<svg xmlns="http://www.w3.org/2000/svg" xmlns:xlink="http://www.w3.org/1999/xlink" width="500" zoomAndPan="magnify" viewBox="0 0 375 374.999991" height="500" preserveAspectRatio="xMidYMid meet" version="1.0"><defs><g/></defs><rect x="-37.5" width="450" fill="" y="-37.499999" height="449.999989" fill-opacity="0"/><rect x="-37.5" width="450" fill="" y="-37.499999" height="449.999989" fill-opacity="0"/><g fill="#3293cd" fill-opacity="1"><g transform="translate(14.244144, 213.749986)"><g><path d="M 35.0625 0 L 6.296875 0 L 6.296875 -49.96875 L 35.0625 -49.96875 L 35.0625 -41.296875 L 16.890625 -41.296875 L 16.890625 -30.3125 L 33.796875 -30.3125 L 33.796875 -21.640625 L 16.890625 -21.640625 L 16.890625 -8.75 L 35.0625 -8.75 Z M 35.0625 0 "/></g></g></g><g fill="#3293cd" fill-opacity="1"><g transform="translate(53.446061, 213.749986)"><g><path d="M 27.515625 -41.875 C 25.484375 -41.875 23.6875 -41.476562 22.125 -40.6875 C 20.570312 -39.90625 19.265625 -38.769531 18.203125 -37.28125 C 17.140625 -35.800781 16.332031 -34.015625 15.78125 -31.921875 C 15.238281 -29.828125 14.96875 -27.46875 14.96875 -24.84375 C 14.96875 -21.3125 15.40625 -18.296875 16.28125 -15.796875 C 17.164062 -13.304688 18.53125 -11.40625 20.375 -10.09375 C 22.21875 -8.789062 24.597656 -8.140625 27.515625 -8.140625 C 29.546875 -8.140625 31.578125 -8.363281 33.609375 -8.8125 C 35.648438 -9.269531 37.867188 -9.921875 40.265625 -10.765625 L 40.265625 -1.875 C 38.054688 -0.96875 35.878906 -0.316406 33.734375 0.078125 C 31.585938 0.484375 29.1875 0.6875 26.53125 0.6875 C 21.375 0.6875 17.140625 -0.375 13.828125 -2.5 C 10.515625 -4.632812 8.054688 -7.625 6.453125 -11.46875 C 4.859375 -15.3125 4.0625 -19.796875 4.0625 -24.921875 C 4.0625 -28.703125 4.570312 -32.164062 5.59375 -35.3125 C 6.625 -38.457031 8.128906 -41.175781 10.109375 -43.46875 C 12.097656 -45.769531 14.550781 -47.546875 17.46875 -48.796875 C 20.382812 -50.054688 23.734375 -50.6875 27.515625 -50.6875 C 29.992188 -50.6875 32.476562 -50.375 34.96875 -49.75 C 37.46875 -49.125 39.859375 -48.265625 42.140625 -47.171875 L 38.71875 -38.5625 C 36.851562 -39.445312 34.972656 -40.21875 33.078125 -40.875 C 31.191406 -41.539062 29.335938 -41.875 27.515625 -41.875 Z M 27.515625 -41.875 "/></g></g></g><g fill="#3293cd" fill-opacity="1"><g transform="translate(98.048067, 213.749986)"><g><path d="M 51.640625 -25.046875 C 51.640625 -21.203125 51.160156 -17.703125 50.203125 -14.546875 C 49.253906 -11.390625 47.804688 -8.671875 45.859375 -6.390625 C 43.910156 -4.109375 41.441406 -2.359375 38.453125 -1.140625 C 35.460938 0.078125 31.929688 0.6875 27.859375 0.6875 C 23.773438 0.6875 20.238281 0.078125 17.25 -1.140625 C 14.269531 -2.359375 11.804688 -4.109375 9.859375 -6.390625 C 7.910156 -8.671875 6.457031 -11.394531 5.5 -14.5625 C 4.539062 -17.726562 4.0625 -21.25 4.0625 -25.125 C 4.0625 -30.289062 4.910156 -34.796875 6.609375 -38.640625 C 8.304688 -42.484375 10.921875 -45.460938 14.453125 -47.578125 C 17.984375 -49.691406 22.472656 -50.75 27.921875 -50.75 C 33.347656 -50.75 37.804688 -49.691406 41.296875 -47.578125 C 44.796875 -45.460938 47.394531 -42.476562 49.09375 -38.625 C 50.789062 -34.769531 51.640625 -30.242188 51.640625 -25.046875 Z M 15.171875 -25.046875 C 15.171875 -21.566406 15.609375 -18.566406 16.484375 -16.046875 C 17.367188 -13.523438 18.742188 -11.585938 20.609375 -10.234375 C 22.472656 -8.878906 24.890625 -8.203125 27.859375 -8.203125 C 30.867188 -8.203125 33.304688 -8.878906 35.171875 -10.234375 C 37.035156 -11.585938 38.394531 -13.523438 39.25 -16.046875 C 40.101562 -18.566406 40.53125 -21.566406 40.53125 -25.046875 C 40.53125 -30.296875 39.550781 -34.421875 37.59375 -37.421875 C 35.632812 -40.429688 32.410156 -41.9375 27.921875 -41.9375 C 24.941406 -41.9375 22.507812 -41.257812 20.625 -39.90625 C 18.75 -38.550781 17.367188 -36.613281 16.484375 -34.09375 C 15.609375 -31.570312 15.171875 -28.554688 15.171875 -25.046875 Z M 15.171875 -25.046875 "/></g></g></g><g fill="#3293cd" fill-opacity="1"><g transform="translate(153.757845, 213.749986)"><g><path d="M 27.453125 0 L 15.421875 -39.203125 L 15.109375 -39.203125 C 15.148438 -38.265625 15.222656 -36.851562 15.328125 -34.96875 C 15.429688 -33.09375 15.523438 -31.097656 15.609375 -28.984375 C 15.703125 -26.867188 15.75 -24.957031 15.75 -23.25 L 15.75 0 L 6.296875 0 L 6.296875 -49.96875 L 20.71875 -49.96875 L 32.546875 -11.765625 L 32.75 -11.765625 L 45.28125 -49.96875 L 59.71875 -49.96875 L 59.71875 0 L 49.828125 0 L 49.828125 -23.65625 C 49.828125 -25.226562 49.851562 -27.035156 49.90625 -29.078125 C 49.96875 -31.128906 50.046875 -33.082031 50.140625 -34.9375 C 50.234375 -36.800781 50.300781 -38.203125 50.34375 -39.140625 L 50.046875 -39.140625 L 37.15625 0 Z M 27.453125 0 "/></g></g></g><g fill="#3293cd" fill-opacity="1"><g transform="translate(219.75514, 213.749986)"><g><path d="M 36.875 0 L 33.25 -11.890625 L 15.046875 -11.890625 L 11.421875 0 L 0 0 L 17.640625 -50.171875 L 30.59375 -50.171875 L 48.296875 0 Z M 30.734375 -20.78125 L 27.109375 -32.40625 C 26.878906 -33.175781 26.578125 -34.171875 26.203125 -35.390625 C 25.828125 -36.609375 25.445312 -37.847656 25.0625 -39.109375 C 24.6875 -40.378906 24.390625 -41.484375 24.171875 -42.421875 C 23.941406 -41.484375 23.625 -40.320312 23.21875 -38.9375 C 22.820312 -37.5625 22.441406 -36.257812 22.078125 -35.03125 C 21.710938 -33.800781 21.453125 -32.925781 21.296875 -32.40625 L 17.703125 -20.78125 Z M 30.734375 -20.78125 "/></g></g></g><g fill="#3293cd" fill-opacity="1"><g transform="translate(268.048358, 213.749986)"><g><path d="M 20.84375 -49.96875 C 25.382812 -49.96875 29.128906 -49.421875 32.078125 -48.328125 C 35.023438 -47.234375 37.21875 -45.582031 38.65625 -43.375 C 40.09375 -41.164062 40.8125 -38.375 40.8125 -35 C 40.8125 -32.71875 40.378906 -30.722656 39.515625 -29.015625 C 38.648438 -27.304688 37.507812 -25.859375 36.09375 -24.671875 C 34.675781 -23.492188 33.148438 -22.523438 31.515625 -21.765625 L 46.21875 0 L 34.453125 0 L 22.53125 -19.171875 L 16.890625 -19.171875 L 16.890625 0 L 6.296875 0 L 6.296875 -49.96875 Z M 20.09375 -41.296875 L 16.890625 -41.296875 L 16.890625 -27.78125 L 20.296875 -27.78125 C 23.804688 -27.78125 26.316406 -28.367188 27.828125 -29.546875 C 29.347656 -30.722656 30.109375 -32.453125 30.109375 -34.734375 C 30.109375 -37.097656 29.289062 -38.78125 27.65625 -39.78125 C 26.03125 -40.789062 23.507812 -41.296875 20.09375 -41.296875 Z M 20.09375 -41.296875 "/></g></g></g><g fill="#3293cd" fill-opacity="1"><g transform="translate(314.256713, 213.749986)"><g><path d="M 46.484375 0 L 34.453125 0 L 21.359375 -21.0625 L 16.890625 -17.84375 L 16.890625 0 L 6.296875 0 L 6.296875 -49.96875 L 16.890625 -49.96875 L 16.890625 -27.109375 C 17.585938 -28.085938 18.28125 -29.066406 18.96875 -30.046875 C 19.65625 -31.023438 20.351562 -32.003906 21.0625 -32.984375 L 34.59375 -49.96875 L 46.34375 -49.96875 L 28.921875 -27.859375 Z M 46.484375 0 "/></g></g></g></svg>